<svg width="437" height="517" viewBox="0 0 437 517" fill="none" xmlns="http://www.w3.org/2000/svg">
<path d="M23.7417 52.7406L39.2092 43.3402C67.6025 26.084 99.1167 14.5892 131.952 9.51215C164.788 4.43513 198.302 5.87526 230.581 13.7504C262.861 21.6255 293.273 35.7814 320.081 55.4097C346.889 75.0381 369.569 99.7545 386.825 128.148L396.205 143.582C428.568 196.832 438.452 260.756 423.683 321.293C408.914 381.83 370.701 434.021 317.452 466.384L295.498 479.726C248.071 508.55 191.136 517.353 137.218 504.199C83.3007 491.045 36.8168 457.011 7.99273 409.584C-4.85292 388.448 -13.4091 364.988 -17.1872 340.545C-20.9653 316.101 -19.8913 291.153 -14.0266 267.125C-8.1618 243.097 2.37887 220.459 16.9934 200.505C31.608 180.551 50.0102 163.672 71.149 150.83L86.0177 141.794C121.306 120.347 163.668 113.797 203.785 123.585C243.903 133.372 278.489 158.695 299.935 193.983L303.534 199.904C320.959 228.575 326.281 262.995 318.329 295.59C310.376 328.185 289.801 356.287 261.13 373.712L245.696 383.092C221.129 398.023 191.639 402.588 163.708 395.784C135.777 388.98 111.691 371.365 96.7425 346.809C76.0009 312.681 86.823 268.206 120.951 247.464L129.766 242.107C159.038 224.317 197.135 233.64 214.905 262.878L220.283 271.726" stroke="#FFDAAF" stroke-width="12" stroke-linecap="round" stroke-linejoin="round"/>
</svg>
